{"title":"Bewakoofiyaan 2014 NEW 720p DVDScr x264 Pimp4003","uid":9777787,"size":1959214833,"categoryP":"video","categoryS":"hd___movies","magnet":"?xt=urn:btih:43f8566f77b7e383cef562a9f0e04a3b03dee4b4&amp;dn=Bewakoofiyaan+2014+NEW+720p+DVDScr+x264+Pimp4003&amp;tr=udp%3A%2F%2Ftracker.openbittorrent.com%3A80&amp;tr=udp%3A%2F%2Fopen.demonii.com%3A1337&amp;tr=udp%3A%2F%2Ftracker.coppersurfer.tk%3A6969&amp;tr=udp%3A%2F%2Fexodus.desync.com%3A6969","seeders":1,"leechers":0,"uploader":"shawnmurthy","files":-1,"time":1395065223,"description":"SCREENSHOTS\n &lt;a href=&quot;\nhttp://pimp4003.net/torrents.php?id=43f8566f77b7e383cef562a9f0e04a3b03dee4b4&quot; rel=&quot;nofollow&quot; target=&quot;_NEW&quot;&gt;\nhttp://pimp4003.net/torrents.php?id=43f8566f77b7e383cef562a9f0e04a3b03dee4b4&lt;/a&gt;\n\nPIMP4003 AND PIMPRG PRESENTS\n\nBewakoofiyaan 2014 NEW 720p DVDScr x264 Pimp4003\n &lt;a href=&quot;\nhttp://www.imdb.com/title/tt3483646/&quot; rel=&quot;nofollow&quot; target=&quot;_NEW&quot;&gt;\nhttp://www.imdb.com/title/tt3483646/&lt;/a&gt;\n\nMohit is a marketing whiz kid vying for a step up the career ladder. Mayera is a financial brain with a penchant for shoes. They're a young middle-class corporate couple that's ambitious ... See full summary Â»\n\nDirector: Nupur Asthana\nWriter: Habib Faisal\nStars: Ayushmann Khurrana, Sonam Kapoor, Rishi Kapoor | See full cast and crew Â»\n\nVideo\nID                                       : 1\nFormat                                   : AVC\nFormat/Info                              : Advanced Video Codec\nFormat profile                           : &lt;a class=&quot;__cf_email__&quot; href=&quot;/cdn-cgi/l/email-protection&quot; data-cfemail=&quot;92dafbf5fad2dea1bca3&quot;&gt;[email&amp;#160;protected]&lt;/a&gt;&lt;script cf-hash='f9e31' type=&quot;text/javascript&quot;&gt;\n/* &lt;![CDATA[ */!function(){try{var t=&quot;currentScript&quot;in document?document.currentScript:function(){for(var t=document.getElementsByTagName(&quot;script&quot;),e=t.length;e--;)if(t[e].getAttribute(&quot;cf-hash&quot;))return t[e]}();if(t&amp;&amp;t.previousSibling){var e,r,n,i,c=t.previousSibling,a=c.getAttribute(&quot;data-cfemail&quot;);if(a){for(e=&quot;&quot;,r=parseInt(a.substr(0,2),16),n=2;a.length-n;n+=2)i=parseInt(a.substr(n,2),16)^r,e+=String.fromCharCode(i);e=document.createTextNode(e),c.parentNode.replaceChild(e,c)}}}catch(u){}}();/* ]]&gt; */&lt;/script&gt;\nFormat settings, CABAC                   : Yes\nFormat settings, ReFrames                : 5 frames\nFormat settings, GOP                     : M=4, N=13\nCodec ID                                 : avc1\nCodec ID/Info                            : Advanced Video Coding\nDuration                                 : 1h 52mn\nBit rate                                 : 2 144 Kbps\nWidth                                    : 1 280 pixels\nHeight                                   : 540 pixels\nDisplay aspect ratio                     : 2.40:1\nFrame rate mode                          : Constant\nFrame rate                               : 24.000 fps\nColor space                              : YUV\nChroma subsampling                       : 4:2:0\nBit depth                                : 8 bits\nScan type                                : Progressive\nBits/(Pixel*Frame)                       : 0.129\nStream size                              : 1.69 GiB (93%)\nWriting library                          : x264 core 110\nEncoding settings                        : cabac=1 / ref=5 / deblock=1:0:0 / analyse=0x3:0x133 / me=hex / subme=8 / psy=1 / psy_rd=1.00:0.00 / mixed_ref=1 / me_range=16 / chroma_me=0 / trellis=1 / 8x8dct=1 / cqm=0 / deadzone=21,11 / fast_pskip=1 / chroma_qp_offset=-2 / threads=8 / sliced_threads=0 / nr=0 / decimate=1 / interlaced=0 / constrained_intra=0 / bframes=3 / b_pyramid=0 / b_adapt=0 / b_bias=0 / direct=3 / weightb=1 / open_gop=0 / weightp=0 / keyint=13 / keyint_min=7 / scenecut=0 / intra_refresh=0 / rc_lookahead=13 / rc=abr / mbtree=1 / bitrate=2144 / ratetol=1.0 / qcomp=0.00 / qpmin=10 / qpmax=51 / qpstep=4 / ip_ratio=1.41 / aq=1:1.00\n\nAudio\nID                                       : 2\nFormat                                   : AAC\nFormat/Info                              : Advanced Audio Codec\nFormat profile                           : LC\nCodec ID                                 : 40\nDuration                                 : 1h 52mn\nBit rate mode                            : Variable\nBit rate                                 : 159 Kbps\nChannel(s)                               : 2 channels\nChannel positions                        : Front: L R\nSampling rate                            : 48.0 KHz\nCompression mode                         : Lossy\nStream size                              : 128 MiB (7%)\n\n\nSOURCE IS EVIL-DEAD....BRIGHTENED THE VIDEO OUT AND MADE IT GOOD SINCE ENTIRE VIDEO IS PRETTY DARK AND. BETTER HAS MUCH AS I COULD....AUDIO WAS A LITTLE HOLLOW AND COULD NOT BE HEARD THAT WELL SO MADE IT BETTER AND CUT THE STATCI OFF AND MADE IT....ENJOY PIMP4003","torrent":{"xt":"urn:btih:43f8566f77b7e383cef562a9f0e04a3b03dee4b4","amp;dn":"Bewakoofiyaan+2014+NEW+720p+DVDScr+x264+Pimp4003","amp;tr":["udp%3A%2F%2Ftracker.openbittorrent.com%3A80","udp%3A%2F%2Fopen.demonii.com%3A1337","udp%3A%2F%2Ftracker.coppersurfer.tk%3A6969","udp%3A%2F%2Fexodus.desync.com%3A6969"],"infoHash":"43f8566f77b7e383cef562a9f0e04a3b03dee4b4","infoHashBuffer":{"type":"Buffer","data":[67,248,86,111,119,183,227,131,206,245,98,169,240,224,74,59,3,222,228,180]},"announce":[],"urlList":[]}}